<svg xmlns="http://www.w3.org/2000/svg" xmlns:xlink="http://www.w3.org/1999/xlink" width="200" zoomAndPan="magnify" viewBox="0 0 150 225" height="300" preserveAspectRatio="xMidYMid meet" version="1.0"><defs><g/></defs><rect x="-15" width="180" fill="#ffffff" y="-22.5" height="270" fill-opacity="1"/><rect x="-15" width="180" fill="#d9d9d9" y="-22.5" height="270" fill-opacity="1"/><path fill="#53c1de" d="M 85.875 71.410156 C 85.875 66.378906 81.679688 62.300781 76.5 62.300781 C 71.320312 62.300781 67.125 66.378906 67.125 71.410156 C 67.125 76.441406 71.320312 80.519531 76.5 80.519531 C 81.679688 80.519531 85.875 76.441406 85.875 71.410156 Z M 85.875 71.410156 " fill-opacity="1" fill-rule="nonzero"/><path fill="#53c1de" d="M 106.953125 54.496094 C 108.929688 46.679688 111.421875 32.179688 102.644531 27.265625 C 93.914062 22.371094 82.550781 31.75 76.546875 37.378906 C 70.566406 31.804688 58.882812 22.46875 50.117188 27.398438 C 41.386719 32.308594 44.078125 46.566406 46.101562 54.433594 C 37.960938 56.679688 24 61.519531 24 71.410156 C 24 81.269531 37.945312 86.539062 46.039062 88.78125 C 44.007812 96.691406 41.449219 110.746094 50.191406 115.644531 C 58.992188 120.574219 70.636719 111.460938 76.695312 105.769531 C 82.734375 111.433594 93.988281 120.605469 102.722656 115.695312 C 111.484375 110.765625 109.203125 96.460938 107.179688 88.550781 C 115.027344 86.300781 129 81.148438 129 71.410156 C 129 61.617188 114.964844 56.734375 106.953125 54.496094 Z M 105.957031 84.355469 C 104.628906 80.269531 102.835938 75.921875 100.640625 71.433594 C 102.734375 67.046875 104.457031 62.757812 105.75 58.695312 C 111.625 60.351562 124.515625 64.132812 124.515625 71.410156 C 124.515625 78.753906 112.144531 82.574219 105.957031 84.355469 Z M 100.476562 111.921875 C 93.957031 115.585938 84.277344 106.8125 79.816406 102.644531 C 82.777344 99.5 85.734375 95.84375 88.617188 91.785156 C 93.695312 91.347656 98.492188 90.632812 102.839844 89.65625 C 104.265625 95.253906 107.019531 108.242188 100.476562 111.921875 Z M 52.433594 111.871094 C 45.914062 108.21875 48.894531 95.675781 50.386719 89.851562 C 54.6875 90.773438 59.449219 91.441406 64.539062 91.839844 C 67.441406 95.8125 70.484375 99.464844 73.550781 102.660156 C 69.761719 106.222656 58.980469 115.539062 52.433594 111.871094 Z M 28.484375 71.410156 C 28.484375 64.039062 41.296875 60.28125 47.304688 58.632812 C 48.621094 62.785156 50.34375 67.125 52.425781 71.515625 C 50.316406 75.972656 48.570312 80.382812 47.242188 84.585938 C 41.511719 82.992188 28.484375 78.785156 28.484375 71.410156 Z M 52.363281 31.171875 C 58.90625 27.488281 69.0625 36.453125 73.40625 40.488281 C 70.355469 43.671875 67.339844 47.292969 64.460938 51.242188 C 59.523438 51.6875 54.796875 52.402344 50.449219 53.359375 C 48.820312 47.015625 45.824219 34.847656 52.363281 31.171875 Z M 91.828125 55.980469 C 95.179688 56.390625 98.386719 56.9375 101.402344 57.605469 C 100.496094 60.425781 99.367188 63.371094 98.039062 66.390625 C 96.117188 62.84375 94.046875 59.363281 91.828125 55.980469 Z M 76.550781 43.601562 C 78.617188 45.78125 80.691406 48.210938 82.730469 50.851562 C 78.59375 50.660156 74.453125 50.660156 70.320312 50.847656 C 72.359375 48.234375 74.449219 45.804688 76.550781 43.601562 Z M 54.996094 66.390625 C 53.691406 63.378906 52.574219 60.417969 51.660156 57.5625 C 54.65625 56.910156 57.851562 56.378906 61.179688 55.972656 C 58.953125 59.347656 56.890625 62.824219 54.996094 66.390625 Z M 61.277344 87.15625 C 57.835938 86.785156 54.59375 86.28125 51.597656 85.644531 C 52.527344 82.738281 53.667969 79.714844 55.003906 76.640625 C 56.921875 80.238281 59.015625 83.75 61.277344 87.15625 Z M 76.675781 99.523438 C 74.546875 97.296875 72.429688 94.832031 70.355469 92.179688 C 74.515625 92.335938 78.679688 92.335938 82.839844 92.15625 C 80.792969 94.855469 78.730469 97.328125 76.675781 99.523438 Z M 98.082031 76.484375 C 99.488281 79.589844 100.671875 82.597656 101.609375 85.457031 C 98.566406 86.132812 95.277344 86.675781 91.816406 87.082031 C 94.050781 83.632812 96.152344 80.101562 98.082031 76.484375 Z M 86.117188 87.609375 C 79.753906 88.050781 73.355469 88.046875 66.992188 87.644531 C 63.378906 82.511719 60.160156 77.117188 57.382812 71.515625 C 60.148438 65.925781 63.339844 60.539062 66.9375 55.414062 C 73.304688 54.949219 79.710938 54.945312 86.078125 55.417969 C 89.644531 60.539062 92.835938 65.914062 95.664062 71.453125 C 92.871094 77.039062 89.660156 82.4375 86.117188 87.609375 Z M 100.40625 31.039062 C 106.953125 34.710938 104.039062 47.738281 102.609375 53.40625 C 98.253906 52.429688 93.523438 51.699219 88.570312 51.25 C 85.683594 47.257812 82.695312 43.628906 79.695312 40.484375 C 84.09375 36.363281 93.921875 27.40625 100.40625 31.039062 Z M 100.40625 31.039062 " fill-opacity="1" fill-rule="evenodd"/><g fill="#000000" fill-opacity="1"><g transform="translate(17.583984, 171.624759)"><g><path d="M 14.96875 -24.4375 L 14.96875 0 L 10.265625 0 L 7.5 -9.859375 L 7.296875 -9.859375 L 7.296875 0 L 1.609375 0 L 1.609375 -24.4375 L 6 -24.4375 L 9.03125 -14.015625 L 9.28125 -14.015625 L 9.28125 -24.4375 Z M 14.96875 -24.4375 "/></g></g></g><g fill="#000000" fill-opacity="1"><g transform="translate(34.151629, 171.624759)"><g><path d="M 15.03125 -21 L 15.03125 -3.40625 L 11.484375 0 L 4.9375 0 L 1.328125 -3.40625 L 1.328125 -21 L 4.9375 -24.4375 L 11.21875 -24.4375 Z M 8.796875 -4.640625 L 8.796875 -19.8125 L 7.5625 -19.8125 L 7.5625 -4.640625 Z M 8.796875 -4.640625 "/></g></g></g><g fill="#000000" fill-opacity="1"><g transform="translate(50.514734, 171.624759)"><g/></g></g><g fill="#000000" fill-opacity="1"><g transform="translate(59.207632, 171.624759)"><g><path d="M 1.609375 -24.4375 L 7.84375 -24.4375 L 7.84375 0 L 1.609375 0 Z M 1.609375 -24.4375 "/></g></g></g><g fill="#000000" fill-opacity="1"><g transform="translate(68.616414, 171.624759)"><g><path d="M 12.4375 -24.4375 L 19.125 -24.4375 L 19.125 0 L 13.4375 0 L 13.671875 -12.578125 L 13.40625 -12.578125 L 11.453125 0 L 9.3125 0 L 7.359375 -12.578125 L 7.09375 -12.578125 L 7.328125 0 L 1.640625 0 L 1.640625 -24.4375 L 8.3125 -24.4375 L 10.1875 -12.3125 L 10.5625 -12.3125 Z M 12.4375 -24.4375 "/></g></g></g><g fill="#000000" fill-opacity="1"><g transform="translate(89.343014, 171.624759)"><g><path d="M 11.359375 -24.4375 L 14.65625 0 L 8.765625 0 L 8.390625 -4.4375 L 6 -4.4375 L 5.65625 0 L -0.234375 0 L 2.96875 -24.4375 Z M 8.046875 -9.0625 L 7.296875 -18.578125 L 6.921875 -18.578125 L 6.3125 -9.0625 Z M 8.046875 -9.0625 "/></g></g></g><g fill="#000000" fill-opacity="1"><g transform="translate(103.763004, 171.624759)"><g><path d="M 14.96875 -21 L 14.96875 -15.0625 L 8.90625 -15.0625 L 8.90625 -19.8125 L 7.390625 -19.8125 L 7.390625 -4.640625 L 8.90625 -4.640625 L 8.90625 -8.015625 L 8.109375 -8.015625 L 8.109375 -12.65625 L 14.96875 -12.65625 L 14.96875 -3.40625 L 11.65625 0 L 5.078125 0 L 1.328125 -3.40625 L 1.328125 -21 L 4.734375 -24.4375 L 11.453125 -24.4375 Z M 14.96875 -21 "/></g></g></g><g fill="#000000" fill-opacity="1"><g transform="translate(119.819304, 171.624759)"><g><path d="M 11.828125 -24.4375 L 11.828125 -19.8125 L 7.671875 -19.8125 L 7.671875 -15.234375 L 11.15625 -15.234375 L 11.15625 -10.609375 L 7.671875 -10.609375 L 7.671875 -4.640625 L 12.0625 -4.640625 L 12.0625 0 L 1.609375 0 L 1.609375 -24.4375 Z M 11.828125 -24.4375 "/></g></g></g></svg>